<svg xmlns="http://www.w3.org/2000/svg" width="20" height="20" viewBox="0 0 20 20"><rect width="100%" height="100%" fill="#DDDDDD"/><path fill="#808080" d="M9.695 6.385v1.1h-2.18v6.13h-1.34v-6.13h-2.18v-1.1h5.7Zm2.3 6.18h1.36q.37 0 .63-.09.25-.09.4-.24.16-.15.22-.35.07-.2.07-.43 0-.23-.07-.42-.08-.19-.24-.32-.16-.13-.41-.2-.25-.07-.61-.07h-1.35v2.12Zm1.14-5.14h-1.14v2.09h1.07q.69 0 1.04-.25.35-.25.35-.8 0-.56-.32-.8t-1-.24Zm-2.49-1.04h2.49q.71 0 1.22.14.5.13.82.38.33.25.48.6.15.36.15.81 0 .25-.08.48-.07.24-.23.44t-.4.37q-.24.16-.58.28 1.49.33 1.49 1.6 0 .46-.17.85-.18.39-.51.68-.34.28-.83.44-.49.16-1.12.16h-2.73v-7.23Z"/></svg>